<svg width="1728" height="480" viewBox="0 0 1728 480" fill="none" xmlns="http://www.w3.org/2000/svg">
<path d="M848 400H928V480H768V80H848V160H928V240H848V400ZM928 400V240H1008V400H928Z" fill="black"/>
<path d="M1088 80V0H1168V80H1088ZM1168 480H1088V160H1168V480Z" fill="black"/>
<path d="M1328 400H1248V80H1328V160H1408V240H1328V400ZM1328 480V400H1408V480H1328Z" fill="black"/>
<path d="M1568 240V160H1728V240H1648V320H1488V240H1568ZM1728 400H1648V320H1728V400ZM1648 400V480H1488V400H1648Z" fill="black"/>
<path d="M0.5 477.5V428H99.5V230H50V180.5H99.5V131H198.5V428H297.5V477.5H0.5Z" fill="black"/>
<path d="M396.5 477.5V428H347V230H396.5V180.5H446V131H644V180.5H495.5V230H446V279.5H644V329H693.5V428H644V477.5H396.5ZM446 428H594.5V329H446V428Z" fill="black"/>
</svg>
