<svg width="16" height="386" viewBox="0 0 16 386" fill="none" xmlns="http://www.w3.org/2000/svg">
    <g clip-path="url(#clip0_16_9)">
        <path d="M2 6H0V8H2V6Z" fill="#7DAEA3" />
        <path d="M4 4H2V6H4V4Z" fill="#7DAEA3" />
        <path d="M6 2H4V4H6V2Z" fill="#7DAEA3" />
        <path d="M8 0H6V2H8V0Z" fill="#7DAEA3" />
        <path d="M14 12H16V14H14V12Z" fill="#7DAEA3" />
        <path d="M12 10H14V12H12V10Z" fill="#7DAEA3" />
        <path d="M10 8H12V10H10V8Z" fill="#7DAEA3" />
        <path d="M8 6H10V8H8V6Z" fill="#7DAEA3" />
        <path d="M2 198H0V200H2V198Z" fill="#7DAEA3" />
        <path d="M4 196H2V198H4V196Z" fill="#7DAEA3" />
        <path d="M6 194H4V196H6V194Z" fill="#7DAEA3" />
        <path d="M8 192H6V194H8V192Z" fill="#7DAEA3" />
        <path d="M14 204H16V206H14V204Z" fill="#7DAEA3" />
        <path d="M12 202H14V204H12V202Z" fill="#7DAEA3" />
        <path d="M10 200H12V202H10V200Z" fill="#7DAEA3" />
        <path d="M8 198H10V200H8V198Z" fill="#7DAEA3" />
        <path d="M2 102H0V104H2V102Z" fill="#7DAEA3" />
        <path d="M4 100H2V102H4V100Z" fill="#7DAEA3" />
        <path d="M6 98H4V100H6V98Z" fill="#7DAEA3" />
        <path d="M8 96H6V98H8V96Z" fill="#7DAEA3" />
        <path d="M14 108H16V110H14V108Z" fill="#7DAEA3" />
        <path d="M12 106H14V108H12V106Z" fill="#7DAEA3" />
        <path d="M10 104H12V106H10V104Z" fill="#7DAEA3" />
        <path d="M8 102H10V104H8V102Z" fill="#7DAEA3" />
        <path d="M2 294H0V296H2V294Z" fill="#7DAEA3" />
        <path d="M4 292H2V294H4V292Z" fill="#7DAEA3" />
        <path d="M6 290H4V292H6V290Z" fill="#7DAEA3" />
        <path d="M8 288H6V290H8V288Z" fill="#7DAEA3" />
        <path d="M14 300H16V302H14V300Z" fill="#7DAEA3" />
        <path d="M12 298H14V300H12V298Z" fill="#7DAEA3" />
        <path d="M10 296H12V298H10V296Z" fill="#7DAEA3" />
        <path d="M8 294H10V296H8V294Z" fill="#7DAEA3" />
        <path d="M2 54H0V56H2V54Z" fill="#7DAEA3" />
        <path d="M4 52H2V54H4V52Z" fill="#7DAEA3" />
        <path d="M6 50H4V52H6V50Z" fill="#7DAEA3" />
        <path d="M8 48H6V50H8V48Z" fill="#7DAEA3" />
        <path d="M14 60H16V62H14V60Z" fill="#7DAEA3" />
        <path d="M12 58H14V60H12V58Z" fill="#7DAEA3" />
        <path d="M10 56H12V58H10V56Z" fill="#7DAEA3" />
        <path d="M8 54H10V56H8V54Z" fill="#7DAEA3" />
        <path d="M2 246H0V248H2V246Z" fill="#7DAEA3" />
        <path d="M4 244H2V246H4V244Z" fill="#7DAEA3" />
        <path d="M6 242H4V244H6V242Z" fill="#7DAEA3" />
        <path d="M8 240H6V242H8V240Z" fill="#7DAEA3" />
        <path d="M14 252H16V254H14V252Z" fill="#7DAEA3" />
        <path d="M12 250H14V252H12V250Z" fill="#7DAEA3" />
        <path d="M10 248H12V250H10V248Z" fill="#7DAEA3" />
        <path d="M8 246H10V248H8V246Z" fill="#7DAEA3" />
        <path d="M2 150H0V152H2V150Z" fill="#7DAEA3" />
        <path d="M4 148H2V150H4V148Z" fill="#7DAEA3" />
        <path d="M6 146H4V148H6V146Z" fill="#7DAEA3" />
        <path d="M8 144H6V146H8V144Z" fill="#7DAEA3" />
        <path d="M14 156H16V158H14V156Z" fill="#7DAEA3" />
        <path d="M12 154H14V156H12V154Z" fill="#7DAEA3" />
        <path d="M10 152H12V154H10V152Z" fill="#7DAEA3" />
        <path d="M8 150H10V152H8V150Z" fill="#7DAEA3" />
        <path d="M2 342H0V344H2V342Z" fill="#7DAEA3" />
        <path d="M4 340H2V342H4V340Z" fill="#7DAEA3" />
        <path d="M6 338H4V340H6V338Z" fill="#7DAEA3" />
        <path d="M8 336H6V338H8V336Z" fill="#7DAEA3" />
        <path d="M14 348H16V350H14V348Z" fill="#7DAEA3" />
        <path d="M12 346H14V348H12V346Z" fill="#7DAEA3" />
        <path d="M10 344H12V346H10V344Z" fill="#7DAEA3" />
        <path d="M8 342H10V344H8V342Z" fill="#7DAEA3" />
        <path d="M2 30H0V32H2V30Z" fill="#7DAEA3" />
        <path d="M4 28H2V30H4V28Z" fill="#7DAEA3" />
        <path d="M6 26H4V28H6V26Z" fill="#7DAEA3" />
        <path d="M8 24H6V26H8V24Z" fill="#7DAEA3" />
        <path d="M14 36H16V38H14V36Z" fill="#7DAEA3" />
        <path d="M12 34H14V36H12V34Z" fill="#7DAEA3" />
        <path d="M10 32H12V34H10V32Z" fill="#7DAEA3" />
        <path d="M8 30H10V32H8V30Z" fill="#7DAEA3" />
        <path d="M2 222H0V224H2V222Z" fill="#7DAEA3" />
        <path d="M4 220H2V222H4V220Z" fill="#7DAEA3" />
        <path d="M6 218H4V220H6V218Z" fill="#7DAEA3" />
        <path d="M8 216H6V218H8V216Z" fill="#7DAEA3" />
        <path d="M14 228H16V230H14V228Z" fill="#7DAEA3" />
        <path d="M12 226H14V228H12V226Z" fill="#7DAEA3" />
        <path d="M10 224H12V226H10V224Z" fill="#7DAEA3" />
        <path d="M8 222H10V224H8V222Z" fill="#7DAEA3" />
        <path d="M2 126H0V128H2V126Z" fill="#7DAEA3" />
        <path d="M4 124H2V126H4V124Z" fill="#7DAEA3" />
        <path d="M6 122H4V124H6V122Z" fill="#7DAEA3" />
        <path d="M8 120H6V122H8V120Z" fill="#7DAEA3" />
        <path d="M14 132H16V134H14V132Z" fill="#7DAEA3" />
        <path d="M12 130H14V132H12V130Z" fill="#7DAEA3" />
        <path d="M10 128H12V130H10V128Z" fill="#7DAEA3" />
        <path d="M8 126H10V128H8V126Z" fill="#7DAEA3" />
        <path d="M2 318H0V320H2V318Z" fill="#7DAEA3" />
        <path d="M4 316H2V318H4V316Z" fill="#7DAEA3" />
        <path d="M6 314H4V316H6V314Z" fill="#7DAEA3" />
        <path d="M8 312H6V314H8V312Z" fill="#7DAEA3" />
        <path d="M14 324H16V326H14V324Z" fill="#7DAEA3" />
        <path d="M12 322H14V324H12V322Z" fill="#7DAEA3" />
        <path d="M10 320H12V322H10V320Z" fill="#7DAEA3" />
        <path d="M8 318H10V320H8V318Z" fill="#7DAEA3" />
        <path d="M2 78H0V80H2V78Z" fill="#7DAEA3" />
        <path d="M4 76H2V78H4V76Z" fill="#7DAEA3" />
        <path d="M6 74H4V76H6V74Z" fill="#7DAEA3" />
        <path d="M8 72H6V74H8V72Z" fill="#7DAEA3" />
        <path d="M14 84H16V86H14V84Z" fill="#7DAEA3" />
        <path d="M12 82H14V84H12V82Z" fill="#7DAEA3" />
        <path d="M10 80H12V82H10V80Z" fill="#7DAEA3" />
        <path d="M8 78H10V80H8V78Z" fill="#7DAEA3" />
        <path d="M2 270H0V272H2V270Z" fill="#7DAEA3" />
        <path d="M4 268H2V270H4V268Z" fill="#7DAEA3" />
        <path d="M6 266H4V268H6V266Z" fill="#7DAEA3" />
        <path d="M8 264H6V266H8V264Z" fill="#7DAEA3" />
        <path d="M14 276H16V278H14V276Z" fill="#7DAEA3" />
        <path d="M12 274H14V276H12V274Z" fill="#7DAEA3" />
        <path d="M10 272H12V274H10V272Z" fill="#7DAEA3" />
        <path d="M8 270H10V272H8V270Z" fill="#7DAEA3" />
        <path d="M2 174H0V176H2V174Z" fill="#7DAEA3" />
        <path d="M4 172H2V174H4V172Z" fill="#7DAEA3" />
        <path d="M6 170H4V172H6V170Z" fill="#7DAEA3" />
        <path d="M8 168H6V170H8V168Z" fill="#7DAEA3" />
        <path d="M14 180H16V182H14V180Z" fill="#7DAEA3" />
        <path d="M12 178H14V180H12V178Z" fill="#7DAEA3" />
        <path d="M10 176H12V178H10V176Z" fill="#7DAEA3" />
        <path d="M8 174H10V176H8V174Z" fill="#7DAEA3" />
        <path d="M2 366H0V368H2V366Z" fill="#7DAEA3" />
        <path d="M4 364H2V366H4V364Z" fill="#7DAEA3" />
        <path d="M6 362H4V364H6V362Z" fill="#7DAEA3" />
        <path d="M8 360H6V362H8V360Z" fill="#7DAEA3" />
        <path d="M14 372H16V374H14V372Z" fill="#7DAEA3" />
        <path d="M12 370H14V372H12V370Z" fill="#7DAEA3" />
        <path d="M10 368H12V370H10V368Z" fill="#7DAEA3" />
        <path d="M8 366H10V368H8V366Z" fill="#7DAEA3" />
        <path d="M2 18H0V20H2V18Z" fill="#7DAEA3" />
        <path d="M4 16H2V18H4V16Z" fill="#7DAEA3" />
        <path d="M6 14H4V16H6V14Z" fill="#7DAEA3" />
        <path d="M8 12H6V14H8V12Z" fill="#7DAEA3" />
        <path d="M14 24H16V26H14V24Z" fill="#7DAEA3" />
        <path d="M12 22H14V24H12V22Z" fill="#7DAEA3" />
        <path d="M10 20H12V22H10V20Z" fill="#7DAEA3" />
        <path d="M8 18H10V20H8V18Z" fill="#7DAEA3" />
        <path d="M2 210H0V212H2V210Z" fill="#7DAEA3" />
        <path d="M4 208H2V210H4V208Z" fill="#7DAEA3" />
        <path d="M6 206H4V208H6V206Z" fill="#7DAEA3" />
        <path d="M8 204H6V206H8V204Z" fill="#7DAEA3" />
        <path d="M14 216H16V218H14V216Z" fill="#7DAEA3" />
        <path d="M12 214H14V216H12V214Z" fill="#7DAEA3" />
        <path d="M10 212H12V214H10V212Z" fill="#7DAEA3" />
        <path d="M8 210H10V212H8V210Z" fill="#7DAEA3" />
        <path d="M2 114H0V116H2V114Z" fill="#7DAEA3" />
        <path d="M4 112H2V114H4V112Z" fill="#7DAEA3" />
        <path d="M6 110H4V112H6V110Z" fill="#7DAEA3" />
        <path d="M8 108H6V110H8V108Z" fill="#7DAEA3" />
        <path d="M14 120H16V122H14V120Z" fill="#7DAEA3" />
        <path d="M12 118H14V120H12V118Z" fill="#7DAEA3" />
        <path d="M10 116H12V118H10V116Z" fill="#7DAEA3" />
        <path d="M8 114H10V116H8V114Z" fill="#7DAEA3" />
        <path d="M2 306H0V308H2V306Z" fill="#7DAEA3" />
        <path d="M4 304H2V306H4V304Z" fill="#7DAEA3" />
        <path d="M6 302H4V304H6V302Z" fill="#7DAEA3" />
        <path d="M8 300H6V302H8V300Z" fill="#7DAEA3" />
        <path d="M14 312H16V314H14V312Z" fill="#7DAEA3" />
        <path d="M12 310H14V312H12V310Z" fill="#7DAEA3" />
        <path d="M10 308H12V310H10V308Z" fill="#7DAEA3" />
        <path d="M8 306H10V308H8V306Z" fill="#7DAEA3" />
        <path d="M2 66H0V68H2V66Z" fill="#7DAEA3" />
        <path d="M4 64H2V66H4V64Z" fill="#7DAEA3" />
        <path d="M6 62H4V64H6V62Z" fill="#7DAEA3" />
        <path d="M8 60H6V62H8V60Z" fill="#7DAEA3" />
        <path d="M14 72H16V74H14V72Z" fill="#7DAEA3" />
        <path d="M12 70H14V72H12V70Z" fill="#7DAEA3" />
        <path d="M10 68H12V70H10V68Z" fill="#7DAEA3" />
        <path d="M8 66H10V68H8V66Z" fill="#7DAEA3" />
        <path d="M2 258H0V260H2V258Z" fill="#7DAEA3" />
        <path d="M4 256H2V258H4V256Z" fill="#7DAEA3" />
        <path d="M6 254H4V256H6V254Z" fill="#7DAEA3" />
        <path d="M8 252H6V254H8V252Z" fill="#7DAEA3" />
        <path d="M14 264H16V266H14V264Z" fill="#7DAEA3" />
        <path d="M12 262H14V264H12V262Z" fill="#7DAEA3" />
        <path d="M10 260H12V262H10V260Z" fill="#7DAEA3" />
        <path d="M8 258H10V260H8V258Z" fill="#7DAEA3" />
        <path d="M2 162H0V164H2V162Z" fill="#7DAEA3" />
        <path d="M4 160H2V162H4V160Z" fill="#7DAEA3" />
        <path d="M6 158H4V160H6V158Z" fill="#7DAEA3" />
        <path d="M8 156H6V158H8V156Z" fill="#7DAEA3" />
        <path d="M14 168H16V170H14V168Z" fill="#7DAEA3" />
        <path d="M12 166H14V168H12V166Z" fill="#7DAEA3" />
        <path d="M10 164H12V166H10V164Z" fill="#7DAEA3" />
        <path d="M8 162H10V164H8V162Z" fill="#7DAEA3" />
        <path d="M2 354H0V356H2V354Z" fill="#7DAEA3" />
        <path d="M4 352H2V354H4V352Z" fill="#7DAEA3" />
        <path d="M6 350H4V352H6V350Z" fill="#7DAEA3" />
        <path d="M8 348H6V350H8V348Z" fill="#7DAEA3" />
        <path d="M14 360H16V362H14V360Z" fill="#7DAEA3" />
        <path d="M12 358H14V360H12V358Z" fill="#7DAEA3" />
        <path d="M10 356H12V358H10V356Z" fill="#7DAEA3" />
        <path d="M8 354H10V356H8V354Z" fill="#7DAEA3" />
        <path d="M2 42H0V44H2V42Z" fill="#7DAEA3" />
        <path d="M4 40H2V42H4V40Z" fill="#7DAEA3" />
        <path d="M6 38H4V40H6V38Z" fill="#7DAEA3" />
        <path d="M8 36H6V38H8V36Z" fill="#7DAEA3" />
        <path d="M14 48H16V50H14V48Z" fill="#7DAEA3" />
        <path d="M12 46H14V48H12V46Z" fill="#7DAEA3" />
        <path d="M10 44H12V46H10V44Z" fill="#7DAEA3" />
        <path d="M8 42H10V44H8V42Z" fill="#7DAEA3" />
        <path d="M2 234H0V236H2V234Z" fill="#7DAEA3" />
        <path d="M4 232H2V234H4V232Z" fill="#7DAEA3" />
        <path d="M6 230H4V232H6V230Z" fill="#7DAEA3" />
        <path d="M8 228H6V230H8V228Z" fill="#7DAEA3" />
        <path d="M14 240H16V242H14V240Z" fill="#7DAEA3" />
        <path d="M12 238H14V240H12V238Z" fill="#7DAEA3" />
        <path d="M10 236H12V238H10V236Z" fill="#7DAEA3" />
        <path d="M8 234H10V236H8V234Z" fill="#7DAEA3" />
        <path d="M2 138H0V140H2V138Z" fill="#7DAEA3" />
        <path d="M4 136H2V138H4V136Z" fill="#7DAEA3" />
        <path d="M6 134H4V136H6V134Z" fill="#7DAEA3" />
        <path d="M8 132H6V134H8V132Z" fill="#7DAEA3" />
        <path d="M14 144H16V146H14V144Z" fill="#7DAEA3" />
        <path d="M12 142H14V144H12V142Z" fill="#7DAEA3" />
        <path d="M10 140H12V142H10V140Z" fill="#7DAEA3" />
        <path d="M8 138H10V140H8V138Z" fill="#7DAEA3" />
        <path d="M2 330H0V332H2V330Z" fill="#7DAEA3" />
        <path d="M4 328H2V330H4V328Z" fill="#7DAEA3" />
        <path d="M6 326H4V328H6V326Z" fill="#7DAEA3" />
        <path d="M8 324H6V326H8V324Z" fill="#7DAEA3" />
        <path d="M14 336H16V338H14V336Z" fill="#7DAEA3" />
        <path d="M12 334H14V336H12V334Z" fill="#7DAEA3" />
        <path d="M10 332H12V334H10V332Z" fill="#7DAEA3" />
        <path d="M8 330H10V332H8V330Z" fill="#7DAEA3" />
        <path d="M2 90H0V92H2V90Z" fill="#7DAEA3" />
        <path d="M4 88H2V90H4V88Z" fill="#7DAEA3" />
        <path d="M6 86H4V88H6V86Z" fill="#7DAEA3" />
        <path d="M8 84H6V86H8V84Z" fill="#7DAEA3" />
        <path d="M14 96H16V98H14V96Z" fill="#7DAEA3" />
        <path d="M12 94H14V96H12V94Z" fill="#7DAEA3" />
        <path d="M10 92H12V94H10V92Z" fill="#7DAEA3" />
        <path d="M8 90H10V92H8V90Z" fill="#7DAEA3" />
        <path d="M2 282H0V284H2V282Z" fill="#7DAEA3" />
        <path d="M4 280H2V282H4V280Z" fill="#7DAEA3" />
        <path d="M6 278H4V280H6V278Z" fill="#7DAEA3" />
        <path d="M8 276H6V278H8V276Z" fill="#7DAEA3" />
        <path d="M14 288H16V290H14V288Z" fill="#7DAEA3" />
        <path d="M12 286H14V288H12V286Z" fill="#7DAEA3" />
        <path d="M10 284H12V286H10V284Z" fill="#7DAEA3" />
        <path d="M8 282H10V284H8V282Z" fill="#7DAEA3" />
        <path d="M2 186H0V188H2V186Z" fill="#7DAEA3" />
        <path d="M4 184H2V186H4V184Z" fill="#7DAEA3" />
        <path d="M6 182H4V184H6V182Z" fill="#7DAEA3" />
        <path d="M8 180H6V182H8V180Z" fill="#7DAEA3" />
        <path d="M14 192H16V194H14V192Z" fill="#7DAEA3" />
        <path d="M12 190H14V192H12V190Z" fill="#7DAEA3" />
        <path d="M10 188H12V190H10V188Z" fill="#7DAEA3" />
        <path d="M8 186H10V188H8V186Z" fill="#7DAEA3" />
        <path d="M2 378H0V380H2V378Z" fill="#7DAEA3" />
        <path d="M4 376H2V378H4V376Z" fill="#7DAEA3" />
        <path d="M6 374H4V376H6V374Z" fill="#7DAEA3" />
        <path d="M8 372H6V374H8V372Z" fill="#7DAEA3" />
        <path d="M14 384H16V386H14V384Z" fill="#7DAEA3" />
        <path d="M12 382H14V384H12V382Z" fill="#7DAEA3" />
        <path d="M10 380H12V382H10V380Z" fill="#7DAEA3" />
        <path d="M8 378H10V380H8V378Z" fill="#7DAEA3" />
    </g>
    <defs>
        <clipPath id="clip0_16_9">
            <rect width="16" height="386" fill="white" />
        </clipPath>
    </defs>
</svg>